<?xml version="1.0" encoding="UTF-8"?> <svg xmlns="http://www.w3.org/2000/svg" id="Layer_1" data-name="Layer 1" viewBox="0 0 360.02 360"><defs><style>.cls-1{fill:#9bc9ff;}.cls-2{fill:#e1fdff;}.cls-3{fill:#33cfdb;}</style></defs><title>03</title><path class="cls-1" d="M1086,714l-.25-2.48A66.14,66.14,0,0,1,1068,714Zm0,0" transform="translate(-780 -360)"></path><path class="cls-2" d="M1002,648a65.84,65.84,0,0,1,25-51.6,71.87,71.87,0,0,0-18.11-2.4H978c-.16,0-.32,0-.48,0v0a41.95,41.95,0,0,1-83,0v0c-.16,0-.32,0-.48,0H863.18a72,72,0,0,0-71.64,64.84L786,714l2.4-24H858v24h210a66,66,0,0,1-66-66Zm0,0" transform="translate(-780 -360)"></path><path class="cls-2" d="M942.38,478a12,12,0,0,0-12.72,0L888,504v45.2a65.78,65.78,0,0,0,96,0V504Zm0,0" transform="translate(-780 -360)"></path><path class="cls-2" d="M1014,474h-12v30a66.17,66.17,0,0,1-1.13,12H1014a12,12,0,0,0,12-12V486a12,12,0,0,0-12-12Zm0,0" transform="translate(-780 -360)"></path><path class="cls-2" d="M858,474h12v30a66.17,66.17,0,0,0,1.13,12H858a12,12,0,0,1-12-12V486a12,12,0,0,1,12-12Zm0,0" transform="translate(-780 -360)"></path><path class="cls-2" d="M972,366H924a24,24,0,0,0-24,24,12,12,0,0,0-12-12H876a24,24,0,0,0-24,24v72h18V450a24,24,0,0,1,24-24h84a24,24,0,0,1,24,24v24h18V414a48,48,0,0,0-48-48Zm0,0" transform="translate(-780 -360)"></path><path class="cls-3" d="M912,456a6,6,0,0,0-6,6v6a6,6,0,0,0,12,0v-6a6,6,0,0,0-6-6Zm0,0" transform="translate(-780 -360)"></path><path class="cls-3" d="M960,456a6,6,0,0,0-6,6v6a6,6,0,0,0,12,0v-6a6,6,0,0,0-6-6Zm0,0" transform="translate(-780 -360)"></path><path class="cls-3" d="M1068,576a71.59,71.59,0,0,0-41.34,13.14,70.26,70.26,0,0,0-12.36-1.14H978a6,6,0,0,1-6-6V566.28A72.61,72.61,0,0,0,1005.68,522H1014a18.05,18.05,0,0,0,18-18V486a17.94,17.94,0,0,0-6-13.32V414a54.09,54.09,0,0,0-54-54H924a30,30,0,0,0-26,15.06A18,18,0,0,0,888,372H876a30,30,0,0,0-30,30v70.68A17.94,17.94,0,0,0,840,486v18a18.05,18.05,0,0,0,18,18h8.34A72.61,72.61,0,0,0,900,566.28V582a6,6,0,0,1-6,6h-36.3a71.82,71.82,0,0,0-71.64,64.86L780,713.4a6.2,6.2,0,0,0,1.56,4.62,6,6,0,0,0,4.44,2h282a72,72,0,0,0,0-144Zm-72-72a59.82,59.82,0,0,1-6,26v-24.3l6-10Zm24-18v18a6,6,0,0,1-6,6h-6.3c.18-2,.3-4,.3-6V480h6a6,6,0,0,1,6,6ZM858,510a6,6,0,0,1-6-6V486a6,6,0,0,1,6-6h6v24c0,2,.12,4,.3,6Zm6-60v18h-6V402a18.05,18.05,0,0,1,18-18h12a6,6,0,0,1,6,6,6,6,0,0,0,12,0,18.05,18.05,0,0,1,18-18h48a42.06,42.06,0,0,1,42,42v54h-6V450a30,30,0,0,0-30-30H894a30,30,0,0,0-30,30Zm18,80a59.82,59.82,0,0,1-6-26v-8.34l6,10Zm-6-57.66V450a18.05,18.05,0,0,1,18-18h84a18.05,18.05,0,0,1,18,18v22.32l-14,23.34-36.48-22.8a18.2,18.2,0,0,0-19.08,0L890,495.66Zm18,74.46V507.3l38.82-24.24a6.07,6.07,0,0,1,6.36,0L978,507.3v39.48a59.83,59.83,0,0,1-84,0Zm76.38,51.48a35.83,35.83,0,0,1-68.76,0A18,18,0,0,0,912,582V571.8a70.67,70.67,0,0,0,48,0V582a18,18,0,0,0,10.38,16.26ZM852,708H792.68l1.2-12H852Zm12,0V666a6,6,0,0,0-12,0v18H795.08L798,654.06A59.84,59.84,0,0,1,857.72,600h31.92a47.87,47.87,0,0,0,92.76,0h32.1a71.77,71.77,0,0,0,13.8,108Zm204,0a60,60,0,1,1,60-60,60,60,0,0,1-60,60Zm0,0" transform="translate(-780 -360)"></path><path class="cls-3" d="M1110,636a11.94,11.94,0,0,0-10.33,6h-8.52a23.6,23.6,0,0,0-2.55-6.11l6-6a11.78,11.78,0,0,0,3.06.44,12,12,0,1,0-11.53-8.93l-6,6a23.6,23.6,0,0,0-6.11-2.55v-8.52a12,12,0,1,0-12,0v8.52a23.6,23.6,0,0,0-6.11,2.55l-6-6a12,12,0,1,0-11.55,8.94,12.24,12.24,0,0,0,3.07-.44l6,6a23.57,23.57,0,0,0-2.56,6.11h-8.52a12,12,0,1,0,0,12h8.52a23.6,23.6,0,0,0,2.55,6.11l-6,6a12,12,0,1,0,8.47,8.49l6.05-6a23.6,23.6,0,0,0,6.11,2.55v8.52a12,12,0,1,0,12,0v-8.52a23.6,23.6,0,0,0,6.11-2.55l6,6a12,12,0,1,0,8.45-8.5l-6-6a23.82,23.82,0,0,0,2.58-6.11h8.52A12,12,0,1,0,1110,636Zm-42,24a12,12,0,1,1,12-12,12,12,0,0,1-12,12Zm0,0" transform="translate(-780 -360)"></path></svg> 